<svg id="bf2f3cd0-b3db-41aa-9133-a6289be6ce26" data-name="Layer 1" xmlns="http://www.w3.org/2000/svg" viewBox="0 0 100 100"><defs><style>.\38 e015e44-f805-4fe5-a6ad-385518e97589{fill:#c75b12;}.\38 163a9ca-d63a-4eb2-94cb-6ec72cf23e52{fill:#fff;}.fd4fe46f-e4a7-4875-87d9-e6a675c65e1b{fill:#0072a6;}</style></defs><title>icon</title><path class="8e015e44-f805-4fe5-a6ad-385518e97589" d="M32.31,55.06c0-3.46,4.35-6.31,6.95-7.7-.41-.43-.82-.86-1.24-1.28-1.46-1.46-3-2.84-4.53-4.13-7.3,1.69-27.41,7.37-27.41,18.78,0,20.75,50.62,34.58,50.62,34.58s5.55-23.54,37.22-29.58C93.92,65.73,32.31,65.22,32.31,55.06Z"/><path class="8163a9ca-d63a-4eb2-94cb-6ec72cf23e52" d="M74,29.36c-1.79-1.64-7.33-5.25-12-9.89s-8.28-10.18-9.9-12c-1.22-1.23-1.92-1.23-3.15,0-1.61,1.79-5.28,7.37-9.89,12s-10.18,8.4-12,9.89c-1.22,1.22-1.22,1.93,0,3.15,1.79,1.6,7.37,5.29,12,9.89s8.28,10.18,9.89,12c1.23,1.23,1.93,1.23,3.15,0,1.6-1.79,5.25-7.33,9.9-12S72.22,34,74,32.51C75.2,31.29,75.2,30.58,74,29.36Z"/><path class="fd4fe46f-e4a7-4875-87d9-e6a675c65e1b" d="M75.76,29.24c-1.93-1.77-7.9-5.66-12.9-10.66S53.94,7.6,52.2,5.67c-1.32-1.31-2.08-1.31-3.4,0-1.74,1.93-5.7,8-10.66,12.91s-11,9.05-12.9,10.66c-1.32,1.32-1.32,2.08,0,3.39,1.93,1.72,7.94,5.7,12.9,10.66s8.92,11,10.66,12.91c1.32,1.32,2.08,1.32,3.4,0,1.72-1.93,5.66-7.9,10.66-12.91s11-9.07,12.9-10.66C77.08,31.32,77.08,30.56,75.76,29.24Zm-6,3.06a98.26,98.26,0,0,1-8.48,9.88h0A87.82,87.82,0,0,1,52,50.25h0a2.46,2.46,0,0,1-2.93,0A95.17,95.17,0,0,1,39.49,42h0a96.22,96.22,0,0,1-8.28-9.53h0a2.46,2.46,0,0,1,0-2.93A95.85,95.85,0,0,1,39.49,20h0A93.76,93.76,0,0,1,49,11.7a2.44,2.44,0,0,1,2.93,0h0A95.85,95.85,0,0,1,61.5,20h0a92,92,0,0,1,8.29,9.67h0A2.06,2.06,0,0,1,69.79,32.3Z"/><path class="fd4fe46f-e4a7-4875-87d9-e6a675c65e1b" d="M68.4,29.74a86,86,0,0,0-7.69-9h0a87.39,87.39,0,0,0-8.85-7.67h0l0,0a2.27,2.27,0,0,0-2.71,0,88.05,88.05,0,0,0-8.85,7.68h0a89.5,89.5,0,0,0-7.68,8.85,2.28,2.28,0,0,0,0,2.72h0a89.13,89.13,0,0,0,7.68,8.86h0a89.5,89.5,0,0,0,8.85,7.68,2.31,2.31,0,0,0,2.73,0h0a83.67,83.67,0,0,0,8.66-7.49h0A88.42,88.42,0,0,0,68.4,32.2a1.89,1.89,0,0,0,0-2.45ZM50.46,17.08l2.9,8.36H51.42l.36,8a7.38,7.38,0,0,1-2.61,0l.34-7.95h-2ZM48.77,43.73l.36-8.18a14.55,14.55,0,0,0,2.8,0l.37,8.19A9.12,9.12,0,0,1,48.77,43.73ZM50,35.07c-6,0-10.9-1.94-10.91-4.33,0-1.64,2.28-3.07,5.68-3.81l2.59,1.67c-2.65.48-4.46,1.45-4.46,2.56,0,1.59,3.66,2.88,8.17,2.88,3.87,0,8.23-1.29,8.23-2.88,0-1-1.18-1.58-2.31-2.14l-1.54.36-.82-2.25,5,1.22-1.13.29s1.92,1,2.32,2.1C61.63,33.15,56.4,35.07,50,35.07Z"/></svg>