<?xml version="1.0" encoding="UTF-8" standalone="no"?>
<svg
   xmlns:dc="http://purl.org/dc/elements/1.1/"
   xmlns:cc="http://creativecommons.org/ns#"
   xmlns:rdf="http://www.w3.org/1999/02/22-rdf-syntax-ns#"
   xmlns:svg="http://www.w3.org/2000/svg"
   xmlns="http://www.w3.org/2000/svg"
   id="svg4"
   viewBox="0 0 18 20"
   height="20"
   width="18"
   fill="#6f6f6f"
   version="1.1">
  <metadata
     id="metadata10">
    <rdf:RDF>
      <cc:Work
         rdf:about="">
        <dc:format>image/svg+xml</dc:format>
        <dc:type
           rdf:resource="http://purl.org/dc/dcmitype/StillImage" />
      </cc:Work>
    </rdf:RDF>
  </metadata>
  <defs
     id="defs8" />
  <path
     id="path2"
     d="M 3,0 V 2 H 2 C 0.89,2 0,2.9 0,4 v 14 a 2,2 0 0 0 2,2 h 14 a 2,2 0 0 0 2,-2 V 4 A 2,2 0 0 0 16,2 H 15 V 0 H 13 V 2 H 5 V 0 H 3 M 2,7 H 16 V 18 H 2 V 7 M 9.19,8 C 8.32,8 7.62,8.2 7.08,8.59 6.56,9 6.3,9.57 6.31,10.36 l 0.01,0.03 H 8.25 C 8.26,10.09 8.35,9.86 8.53,9.7 8.71,9.55 8.93,9.47 9.19,9.47 c 0.31,0 0.57,0.1 0.75,0.28 0.18,0.19 0.26,0.45 0.26,0.75 0,0.32 -0.07,0.59 -0.23,0.82 C 9.83,11.55 9.62,11.75 9.36,11.91 8.85,12.25 8.5,12.55 8.31,12.82 8.11,13.08 8,13.5 8,14 h 2 c 0,-0.31 0.04,-0.56 0.13,-0.74 0.09,-0.18 0.26,-0.36 0.51,-0.52 0.45,-0.24 0.82,-0.53 1.11,-0.93 0.29,-0.4 0.44,-0.81 0.44,-1.31 0,-0.76 -0.27,-1.37 -0.81,-1.82 C 10.85,8.23 10.12,8 9.19,8 M 8,15 v 2 h 2 v -2 z" />
</svg>
