<svg xmlns="http://www.w3.org/2000/svg" viewBox="0 0 100 100"><defs><style>.db79f74b-a5f4-4ce2-84ad-d698fe425d68{fill:#fff;}</style></defs><title>IEEEUTD Icon White</title><g id="4ae418b1-b834-47e6-b44f-abc61407025e" data-name="Layer 2"><path class="db79f74b-a5f4-4ce2-84ad-d698fe425d68" d="M32.31,56.66c0-3.47,4.35-6.31,6.95-7.71-.41-.43-.82-.85-1.24-1.27-1.46-1.47-3-2.85-4.53-4.14-7.3,1.69-27.41,7.38-27.41,18.78,0,20.75,50.62,34.59,50.62,34.59s5.55-23.54,37.22-29.59C93.92,67.32,32.31,66.81,32.31,56.66Z"/><path class="db79f74b-a5f4-4ce2-84ad-d698fe425d68" d="M75.76,30.83c-1.93-1.77-7.9-5.66-12.9-10.66S53.94,9.2,52.2,7.27C50.88,6,50.12,6,48.8,7.27c-1.74,1.93-5.7,7.94-10.66,12.9s-11,9-12.9,10.66c-1.32,1.32-1.32,2.08,0,3.4,1.93,1.72,7.94,5.7,12.9,10.66s8.92,11,10.66,12.9c1.32,1.32,2.08,1.32,3.4,0,1.72-1.93,5.66-7.9,10.66-12.9s11-9.08,12.9-10.66C77.08,32.91,77.08,32.15,75.76,30.83Zm-6,3.06a97.09,97.09,0,0,1-8.48,9.88h0A89.76,89.76,0,0,1,52,51.85h0a2.44,2.44,0,0,1-2.93,0,93.76,93.76,0,0,1-9.54-8.27h0A95.85,95.85,0,0,1,31.21,34h0a2.48,2.48,0,0,1,0-2.94,96.22,96.22,0,0,1,8.28-9.53h0A96.63,96.63,0,0,1,49,13.29a2.46,2.46,0,0,1,2.93,0h0a93.76,93.76,0,0,1,9.54,8.27h0a91.71,91.71,0,0,1,8.29,9.68h0A2.06,2.06,0,0,1,69.79,33.89Z"/><path class="db79f74b-a5f4-4ce2-84ad-d698fe425d68" d="M68.4,31.34a84.57,84.57,0,0,0-7.69-9h0a88.05,88.05,0,0,0-8.85-7.68h0a2.25,2.25,0,0,0-2.71,0,89.5,89.5,0,0,0-8.85,7.68h0a89.5,89.5,0,0,0-7.68,8.85,2.3,2.3,0,0,0,0,2.73h0a89.5,89.5,0,0,0,7.68,8.85h0a88.05,88.05,0,0,0,8.85,7.68,2.3,2.3,0,0,0,2.73,0h0A82.34,82.34,0,0,0,60.53,43h0A88.74,88.74,0,0,0,68.4,33.8a1.91,1.91,0,0,0,0-2.46ZM50.46,18.67,53.36,27H51.42l.36,8a7.38,7.38,0,0,1-2.61,0L49.51,27h-2ZM48.77,45.32l.36-8.18a14.55,14.55,0,0,0,2.8,0l.37,8.19A9.12,9.12,0,0,1,48.77,45.32ZM50,36.66c-6,0-10.9-1.94-10.91-4.33,0-1.64,2.28-3.07,5.68-3.8l2.59,1.66c-2.65.48-4.46,1.45-4.46,2.57,0,1.59,3.66,2.88,8.17,2.88,3.87,0,8.23-1.29,8.23-2.88,0-1-1.18-1.58-2.31-2.14L55.45,31l-.82-2.25,5,1.23-1.13.29s1.92,1,2.32,2.09C61.63,34.74,56.4,36.66,50,36.66Z"/></g></svg>