<?xml version="1.0" standalone="no"?>
<!DOCTYPE svg PUBLIC "-//W3C//DTD SVG 20010904//EN"
 "http://www.w3.org/TR/2001/REC-SVG-20010904/DTD/svg10.dtd">
<svg version="1.0" xmlns="http://www.w3.org/2000/svg"
 width="240.000000pt" height="240.000000pt" viewBox="0 0 240.000000 240.000000"
 preserveAspectRatio="xMidYMid meet">
<metadata>
Created by potrace 1.15, written by Peter Selinger 2001-2017
</metadata>
<g transform="translate(0.000000,240.000000) scale(0.100000,-0.100000)"
fill="#6f6f6f" stroke="none">
<path d="M1029 2355 c-227 -45 -442 -203 -538 -395 -22 -45 -41 -89 -41 -96 0
-27 -66 -16 -116 19 -42 29 -52 32 -124 32 -71 0 -82 -3 -122 -30 -65 -46 -88
-94 -88 -186 l0 -76 65 -97 66 -96 -66 -325 c-87 -433 -86 -494 5 -599 97
-110 267 -135 392 -57 l48 30 0 -224 0 -225 685 0 685 0 0 231 0 230 33 -25
c56 -43 106 -59 187 -60 122 0 221 60 274 167 42 83 37 154 -39 532 l-66 325
66 96 65 97 0 76 c0 92 -23 140 -88 186 -40 27 -51 30 -122 30 -72 0 -82 -3
-124 -32 -50 -35 -116 -46 -116 -19 0 7 -19 51 -42 97 -32 66 -60 102 -127
170 -122 122 -255 193 -418 225 -91 17 -245 17 -334 -1z m104 -563 c28 -11 71
-22 94 -26 l42 -6 3 70 3 70 35 -47 c66 -89 173 -148 288 -160 l54 -6 -4 -166
c-4 -161 -5 -168 -36 -241 -18 -41 -45 -90 -59 -108 -34 -45 -136 -119 -183
-133 -32 -10 -41 -20 -66 -72 -43 -91 -59 -107 -103 -107 -46 0 -68 22 -104
102 -23 52 -30 58 -92 88 -98 47 -173 125 -215 225 -33 78 -34 84 -38 246 l-4
166 41 7 c59 9 122 70 157 151 l28 64 53 -49 c30 -28 75 -57 106 -68z m-863
-67 c29 -30 40 -35 80 -35 59 0 129 -35 153 -77 11 -19 19 -55 20 -90 l2 -58
-112 -3 -111 -3 -76 113 c-42 62 -76 122 -76 132 0 29 29 56 60 56 17 0 38
-12 60 -35z m1962 18 c10 -9 18 -26 18 -37 0 -12 -34 -72 -76 -134 l-76 -113
-111 3 -112 3 2 58 c1 35 9 71 20 90 24 42 94 77 153 77 40 0 51 5 80 35 37
39 72 45 102 18z"/>
<path d="M925 1665 c-22 -21 -25 -33 -25 -90 0 -57 3 -69 25 -90 31 -32 69
-32 100 0 22 21 25 33 25 90 0 57 -3 69 -25 90 -13 14 -36 25 -50 25 -14 0
-37 -11 -50 -25z"/>
<path d="M1375 1665 c-22 -21 -25 -33 -25 -90 0 -57 3 -69 25 -90 31 -32 69
-32 100 0 22 21 25 33 25 90 0 57 -3 69 -25 90 -13 14 -36 25 -50 25 -14 0
-37 -11 -50 -25z"/>
<path d="M1148 1293 c-56 -64 3 -156 81 -124 76 32 54 141 -29 141 -23 0 -43
-7 -52 -17z"/>
</g>
</svg>
